<svg width="46" height="47" viewBox="0 0 46 47" fill="none" xmlns="http://www.w3.org/2000/svg">
<path d="M23 11.583C16.4505 11.583 11.2314 16.9045 11.2314 23.3516C11.2314 29.9011 16.4505 35.1202 23 35.1202C29.4471 35.1202 34.7686 29.9011 34.7686 23.3516C34.7686 16.9045 29.4471 11.583 23 11.583ZM23 31.0268C18.8042 31.0268 15.3248 27.6497 15.3248 23.3516C15.3248 19.1559 18.7019 15.7788 23 15.7788C27.1958 15.7788 30.5728 19.1559 30.5728 23.3516C30.5728 27.6497 27.1958 31.0268 23 31.0268ZM37.941 11.1737C37.941 9.63866 36.7129 8.41064 35.1779 8.41064C33.6429 8.41064 32.4149 9.63866 32.4149 11.1737C32.4149 12.7087 33.6429 13.9367 35.1779 13.9367C36.7129 13.9367 37.941 12.7087 37.941 11.1737ZM45.7185 13.9367C45.5138 10.2527 44.6951 6.97794 42.0344 4.31722C39.3737 1.6565 36.0989 0.837818 32.4149 0.633147C28.6284 0.428476 17.2692 0.428476 13.4828 0.633147C9.79873 0.837818 6.62634 1.6565 3.86328 4.31722C1.20256 6.97794 0.383878 10.2527 0.179207 13.9367C-0.0254635 17.7232 -0.0254635 29.0824 0.179207 32.8688C0.383878 36.5529 1.20256 39.7253 3.86328 42.4883C6.62634 45.149 9.79873 45.9677 13.4828 46.1724C17.2692 46.3771 28.6284 46.3771 32.4149 46.1724C36.0989 45.9677 39.3737 45.149 42.0344 42.4883C44.6951 39.7253 45.5138 36.5529 45.7185 32.8688C45.9231 29.0824 45.9231 17.7232 45.7185 13.9367ZM40.8064 36.8599C40.09 38.9066 38.4526 40.4416 36.5083 41.2603C33.4382 42.4883 26.2747 42.1813 23 42.1813C19.6229 42.1813 12.4595 42.4883 9.49173 41.2603C7.44502 40.4416 5.90999 38.9066 5.09131 36.8599C3.86328 33.8921 4.17029 26.7287 4.17029 23.3516C4.17029 20.0769 3.86328 12.9134 5.09131 9.84333C5.90999 7.89896 7.44502 6.36393 9.49173 5.54525C12.4595 4.31722 19.6229 4.62423 23 4.62423C26.2747 4.62423 33.4382 4.31722 36.5083 5.54525C38.4526 6.26159 39.9877 7.89896 40.8064 9.84333C42.0344 12.9134 41.7274 20.0769 41.7274 23.3516C41.7274 26.7287 42.0344 33.8921 40.8064 36.8599Z" fill="white"/>
</svg>
